<?xml version="1.0" encoding="utf-8"?>
<svg xmlns="http://www.w3.org/2000/svg" xmlns:xlink="http://www.w3.org/1999/xlink" width="1350" height="1200" viewBox="0 0 5400 4800">
<defs>
  <clipPath id="clip1500">
    <rect x="0" y="0" width="5400" height="4800"/>
  </clipPath>
</defs>
<polygon clip-path="url(#clip1500)" points="
0,4800 5400,4800 5400,0 0,0 
  " fill="#ffffff" fill-rule="evenodd" fill-opacity="1"/>
<defs>
  <clipPath id="clip1501">
    <rect x="1080" y="0" width="3781" height="3781"/>
  </clipPath>
</defs>
<polygon clip-path="url(#clip1500)" points="
753.446,4187.32 5163.78,4187.32 5163.78,141.732 753.446,141.732 
  " fill="#ffffff" fill-rule="evenodd" fill-opacity="1"/>
<defs>
  <clipPath id="clip1502">
    <rect x="753" y="141" width="4411" height="4047"/>
  </clipPath>
</defs>
<polyline clip-path="url(#clip1502)" style="stroke:#000000; stroke-width:6; stroke-opacity:0.1; fill:none" points="
  753.446,4187.32 753.446,141.732 
  "/>
<polyline clip-path="url(#clip1502)" style="stroke:#000000; stroke-width:6; stroke-opacity:0.1; fill:none" points="
  1771.21,4187.32 1771.21,141.732 
  "/>
<polyline clip-path="url(#clip1502)" style="stroke:#000000; stroke-width:6; stroke-opacity:0.1; fill:none" points="
  2788.98,4187.32 2788.98,141.732 
  "/>
<polyline clip-path="url(#clip1502)" style="stroke:#000000; stroke-width:6; stroke-opacity:0.1; fill:none" points="
  3806.75,4187.32 3806.75,141.732 
  "/>
<polyline clip-path="url(#clip1502)" style="stroke:#000000; stroke-width:6; stroke-opacity:0.1; fill:none" points="
  4824.52,4187.32 4824.52,141.732 
  "/>
<polyline clip-path="url(#clip1502)" style="stroke:#000000; stroke-width:6; stroke-opacity:0.1; fill:none" points="
  753.446,4187.32 5163.78,4187.32 
  "/>
<polyline clip-path="url(#clip1502)" style="stroke:#000000; stroke-width:6; stroke-opacity:0.1; fill:none" points="
  753.446,2838.79 5163.78,2838.79 
  "/>
<polyline clip-path="url(#clip1502)" style="stroke:#000000; stroke-width:6; stroke-opacity:0.1; fill:none" points="
  753.446,1490.26 5163.78,1490.26 
  "/>
<polyline clip-path="url(#clip1502)" style="stroke:#000000; stroke-width:6; stroke-opacity:0.1; fill:none" points="
  753.446,141.732 5163.78,141.732 
  "/>
<polyline clip-path="url(#clip1500)" style="stroke:#000000; stroke-width:12; stroke-opacity:1; fill:none" points="
  753.446,4187.32 5163.78,4187.32 
  "/>
<polyline clip-path="url(#clip1500)" style="stroke:#000000; stroke-width:12; stroke-opacity:1; fill:none" points="
  753.446,4187.32 753.446,141.732 
  "/>
<polyline clip-path="url(#clip1500)" style="stroke:#000000; stroke-width:12; stroke-opacity:1; fill:none" points="
  753.446,4187.32 753.446,4126.63 
  "/>
<polyline clip-path="url(#clip1500)" style="stroke:#000000; stroke-width:12; stroke-opacity:1; fill:none" points="
  1771.21,4187.32 1771.21,4126.63 
  "/>
<polyline clip-path="url(#clip1500)" style="stroke:#000000; stroke-width:12; stroke-opacity:1; fill:none" points="
  2788.98,4187.32 2788.98,4126.63 
  "/>
<polyline clip-path="url(#clip1500)" style="stroke:#000000; stroke-width:12; stroke-opacity:1; fill:none" points="
  3806.75,4187.32 3806.75,4126.63 
  "/>
<polyline clip-path="url(#clip1500)" style="stroke:#000000; stroke-width:12; stroke-opacity:1; fill:none" points="
  4824.52,4187.32 4824.52,4126.63 
  "/>
<polyline clip-path="url(#clip1500)" style="stroke:#000000; stroke-width:12; stroke-opacity:1; fill:none" points="
  753.446,4187.32 819.601,4187.32 
  "/>
<polyline clip-path="url(#clip1500)" style="stroke:#000000; stroke-width:12; stroke-opacity:1; fill:none" points="
  753.446,2838.79 819.601,2838.79 
  "/>
<polyline clip-path="url(#clip1500)" style="stroke:#000000; stroke-width:12; stroke-opacity:1; fill:none" points="
  753.446,1490.26 819.601,1490.26 
  "/>
<polyline clip-path="url(#clip1500)" style="stroke:#000000; stroke-width:12; stroke-opacity:1; fill:none" points="
  753.446,141.732 819.601,141.732 
  "/>
<g clip-path="url(#clip1500)">
<text style="fill:#000000; fill-opacity:1; font-family:Arial,Helvetica Neue,Helvetica,sans-serif; font-size:248px; text-anchor:middle;" transform="rotate(0, 753.446, 4431.52)" x="753.446" y="4431.52">0</text>
</g>
<g clip-path="url(#clip1500)">
<text style="fill:#000000; fill-opacity:1; font-family:Arial,Helvetica Neue,Helvetica,sans-serif; font-size:248px; text-anchor:middle;" transform="rotate(0, 1771.21, 4431.52)" x="1771.21" y="4431.52">30</text>
</g>
<g clip-path="url(#clip1500)">
<text style="fill:#000000; fill-opacity:1; font-family:Arial,Helvetica Neue,Helvetica,sans-serif; font-size:248px; text-anchor:middle;" transform="rotate(0, 2788.98, 4431.52)" x="2788.98" y="4431.52">60</text>
</g>
<g clip-path="url(#clip1500)">
<text style="fill:#000000; fill-opacity:1; font-family:Arial,Helvetica Neue,Helvetica,sans-serif; font-size:248px; text-anchor:middle;" transform="rotate(0, 3806.75, 4431.52)" x="3806.75" y="4431.52">90</text>
</g>
<g clip-path="url(#clip1500)">
<text style="fill:#000000; fill-opacity:1; font-family:Arial,Helvetica Neue,Helvetica,sans-serif; font-size:248px; text-anchor:middle;" transform="rotate(0, 4824.52, 4431.52)" x="4824.52" y="4431.52">120</text>
</g>
<g clip-path="url(#clip1500)">
<text style="fill:#000000; fill-opacity:1; font-family:Arial,Helvetica Neue,Helvetica,sans-serif; font-size:248px; text-anchor:end;" transform="rotate(0, 699.446, 4277.82)" x="699.446" y="4277.82">0</text>
</g>
<g clip-path="url(#clip1500)">
<text style="fill:#000000; fill-opacity:1; font-family:Arial,Helvetica Neue,Helvetica,sans-serif; font-size:248px; text-anchor:end;" transform="rotate(0, 699.446, 2929.29)" x="699.446" y="2929.29">10</text>
</g>
<g clip-path="url(#clip1500)">
<text style="fill:#000000; fill-opacity:1; font-family:Arial,Helvetica Neue,Helvetica,sans-serif; font-size:248px; text-anchor:end;" transform="rotate(0, 699.446, 1580.76)" x="699.446" y="1580.76">20</text>
</g>
<g clip-path="url(#clip1500)">
<text style="fill:#000000; fill-opacity:1; font-family:Arial,Helvetica Neue,Helvetica,sans-serif; font-size:248px; text-anchor:end;" transform="rotate(0, 699.446, 232.232)" x="699.446" y="232.232">30</text>
</g>
<g clip-path="url(#clip1500)">
<text style="fill:#000000; fill-opacity:1; font-family:Arial,Helvetica Neue,Helvetica,sans-serif; font-size:248px; text-anchor:middle;" transform="rotate(0, 2958.61, 4763.8)" x="2958.61" y="4763.8">Samples (thousands)</text>
</g>
<g clip-path="url(#clip1500)">
<text style="fill:#000000; fill-opacity:1; font-family:Arial,Helvetica Neue,Helvetica,sans-serif; font-size:248px; text-anchor:middle;" transform="rotate(-90, 217.2, 2164.52)" x="217.2" y="2164.52">Memory (GB)</text>
</g>
<polyline clip-path="url(#clip1502)" style="stroke:#009af9; stroke-width:36; stroke-opacity:1; fill:none" points="
  1092.7,4176.14 1431.96,4175.8 1771.21,4175.45 2110.47,4175.1 2449.73,4174.76 2788.98,4174.41 3128.24,4175.23 3467.5,4174.89 3806.75,4174.56 4146.01,4173.03 
  4485.27,4173.89 4824.52,4173.55 
  "/>
<polyline clip-path="url(#clip1502)" style="stroke:#e26f46; stroke-width:36; stroke-opacity:1; fill:none" stroke-dasharray="144, 90" points="
  1092.7,4129.23 1431.96,4158.17 1771.21,4146.52 2110.47,4169.49 2449.73,4170.22 2788.98,4168.69 3128.24,3848.76 3467.5,3989.64 3806.75,4169.85 4146.01,4167.09 
  4485.27,4164.3 4824.52,4167.5 
  "/>
<polyline clip-path="url(#clip1502)" style="stroke:#3da44d; stroke-width:36; stroke-opacity:1; fill:none" stroke-dasharray="18, 36" points="
  1092.7,4079.79 1431.96,4058.94 1771.21,4121.86 2110.47,4134.53 2449.73,4128.75 2788.98,4122.85 3128.24,4104.41 3467.5,4097.82 3806.75,4123.08 4146.01,4127.02 
  4485.27,4114.11 4824.52,4111.65 
  "/>
<polyline clip-path="url(#clip1502)" style="stroke:#c271d2; stroke-width:36; stroke-opacity:1; fill:none" stroke-dasharray="144, 72, 18, 72" points="
  1092.7,4167.12 1431.96,4162.59 1771.21,4162.47 2110.47,4159.6 2449.73,4153.11 2788.98,4149.95 3128.24,4157.08 3467.5,4153.6 3806.75,4144.07 4146.01,4142.38 
  4485.27,4138.31 4824.52,4135.43 
  "/>
<polyline clip-path="url(#clip1502)" style="stroke:#ac8d18; stroke-width:72; stroke-opacity:1; fill:none" points="
  1092.7,3850.18 1431.96,3513.05 1771.21,3175.92 2110.47,2838.79 2449.73,2501.66 2788.98,2164.52 3128.24,1827.39 3467.5,1490.26 3806.75,1153.13 4146.01,815.996 
  4485.27,478.864 4824.52,141.732 
  "/>
<polygon clip-path="url(#clip1500)" points="
915.446,2053.33 2873.86,2053.33 2873.86,148.212 915.446,148.212 
  " fill="#ffffff" fill-rule="evenodd" fill-opacity="1"/>
<polyline clip-path="url(#clip1500)" style="stroke:#000000; stroke-width:12; stroke-opacity:1; fill:none" points="
  915.446,2053.33 2873.86,2053.33 2873.86,148.212 915.446,148.212 915.446,2053.33 
  "/>
<polyline clip-path="url(#clip1500)" style="stroke:#009af9; stroke-width:36; stroke-opacity:1; fill:none" points="
  969.446,465.732 1293.45,465.732 
  "/>
<g clip-path="url(#clip1500)">
<text style="fill:#000000; fill-opacity:1; font-family:Arial,Helvetica Neue,Helvetica,sans-serif; font-size:248px; text-anchor:start;" transform="rotate(0, 1347.45, 556.232)" x="1347.45" y="556.232">Normal (nd)</text>
</g>
<polyline clip-path="url(#clip1500)" style="stroke:#e26f46; stroke-width:36; stroke-opacity:1; fill:none" stroke-dasharray="144, 90" points="
  969.446,783.252 1293.45,783.252 
  "/>
<g clip-path="url(#clip1500)">
<text style="fill:#000000; fill-opacity:1; font-family:Arial,Helvetica Neue,Helvetica,sans-serif; font-size:248px; text-anchor:start;" transform="rotate(0, 1347.45, 873.752)" x="1347.45" y="873.752">Logistic (nd)</text>
</g>
<polyline clip-path="url(#clip1500)" style="stroke:#3da44d; stroke-width:36; stroke-opacity:1; fill:none" stroke-dasharray="18, 36" points="
  969.446,1100.77 1293.45,1100.77 
  "/>
<g clip-path="url(#clip1500)">
<text style="fill:#000000; fill-opacity:1; font-family:Arial,Helvetica Neue,Helvetica,sans-serif; font-size:248px; text-anchor:start;" transform="rotate(0, 1347.45, 1191.27)" x="1347.45" y="1191.27">Poisson (nd)</text>
</g>
<polyline clip-path="url(#clip1500)" style="stroke:#c271d2; stroke-width:36; stroke-opacity:1; fill:none" stroke-dasharray="144, 72, 18, 72" points="
  969.446,1418.29 1293.45,1418.29 
  "/>
<g clip-path="url(#clip1500)">
<text style="fill:#000000; fill-opacity:1; font-family:Arial,Helvetica Neue,Helvetica,sans-serif; font-size:248px; text-anchor:start;" transform="rotate(0, 1347.45, 1508.79)" x="1347.45" y="1508.79">Neg Bin (nd)</text>
</g>
<polyline clip-path="url(#clip1500)" style="stroke:#ac8d18; stroke-width:72; stroke-opacity:1; fill:none" points="
  969.446,1735.81 1293.45,1735.81 
  "/>
<g clip-path="url(#clip1500)">
<text style="fill:#000000; fill-opacity:1; font-family:Arial,Helvetica Neue,Helvetica,sans-serif; font-size:248px; text-anchor:start;" transform="rotate(0, 1347.45, 1826.31)" x="1347.45" y="1826.31">Matrix size</text>
</g>
</svg>
