<?xml version="1.0" encoding="utf-8"?>
<svg xmlns="http://www.w3.org/2000/svg" xmlns:xlink="http://www.w3.org/1999/xlink" width="1350" height="1200" viewBox="0 0 5400 4800">
<defs>
  <clipPath id="clip0300">
    <rect x="0" y="0" width="5400" height="4800"/>
  </clipPath>
</defs>
<polygon clip-path="url(#clip0300)" points="
0,4800 5400,4800 5400,0 0,0 
  " fill="#ffffff" fill-rule="evenodd" fill-opacity="1"/>
<defs>
  <clipPath id="clip0301">
    <rect x="1080" y="0" width="3781" height="3781"/>
  </clipPath>
</defs>
<polygon clip-path="url(#clip0300)" points="
1034.45,4187.32 5163.78,4187.32 5163.78,141.732 1034.45,141.732 
  " fill="#ffffff" fill-rule="evenodd" fill-opacity="1"/>
<defs>
  <clipPath id="clip0302">
    <rect x="1034" y="141" width="4130" height="4047"/>
  </clipPath>
</defs>
<polyline clip-path="url(#clip0302)" style="stroke:#000000; stroke-width:6; stroke-opacity:0.1; fill:none" points="
  1034.45,4187.32 1034.45,141.732 
  "/>
<polyline clip-path="url(#clip0302)" style="stroke:#000000; stroke-width:6; stroke-opacity:0.1; fill:none" points="
  1987.37,4187.32 1987.37,141.732 
  "/>
<polyline clip-path="url(#clip0302)" style="stroke:#000000; stroke-width:6; stroke-opacity:0.1; fill:none" points="
  2940.29,4187.32 2940.29,141.732 
  "/>
<polyline clip-path="url(#clip0302)" style="stroke:#000000; stroke-width:6; stroke-opacity:0.1; fill:none" points="
  3893.22,4187.32 3893.22,141.732 
  "/>
<polyline clip-path="url(#clip0302)" style="stroke:#000000; stroke-width:6; stroke-opacity:0.1; fill:none" points="
  4846.14,4187.32 4846.14,141.732 
  "/>
<polyline clip-path="url(#clip0302)" style="stroke:#000000; stroke-width:6; stroke-opacity:0.1; fill:none" points="
  1034.45,4187.32 5163.78,4187.32 
  "/>
<polyline clip-path="url(#clip0302)" style="stroke:#000000; stroke-width:6; stroke-opacity:0.1; fill:none" points="
  1034.45,3378.2 5163.78,3378.2 
  "/>
<polyline clip-path="url(#clip0302)" style="stroke:#000000; stroke-width:6; stroke-opacity:0.1; fill:none" points="
  1034.45,2569.08 5163.78,2569.08 
  "/>
<polyline clip-path="url(#clip0302)" style="stroke:#000000; stroke-width:6; stroke-opacity:0.1; fill:none" points="
  1034.45,1759.97 5163.78,1759.97 
  "/>
<polyline clip-path="url(#clip0302)" style="stroke:#000000; stroke-width:6; stroke-opacity:0.1; fill:none" points="
  1034.45,950.849 5163.78,950.849 
  "/>
<polyline clip-path="url(#clip0302)" style="stroke:#000000; stroke-width:6; stroke-opacity:0.1; fill:none" points="
  1034.45,141.732 5163.78,141.732 
  "/>
<polyline clip-path="url(#clip0300)" style="stroke:#000000; stroke-width:12; stroke-opacity:1; fill:none" points="
  1034.45,4187.32 5163.78,4187.32 
  "/>
<polyline clip-path="url(#clip0300)" style="stroke:#000000; stroke-width:12; stroke-opacity:1; fill:none" points="
  1034.45,4187.32 1034.45,141.732 
  "/>
<polyline clip-path="url(#clip0300)" style="stroke:#000000; stroke-width:12; stroke-opacity:1; fill:none" points="
  1034.45,4187.32 1034.45,4126.63 
  "/>
<polyline clip-path="url(#clip0300)" style="stroke:#000000; stroke-width:12; stroke-opacity:1; fill:none" points="
  1987.37,4187.32 1987.37,4126.63 
  "/>
<polyline clip-path="url(#clip0300)" style="stroke:#000000; stroke-width:12; stroke-opacity:1; fill:none" points="
  2940.29,4187.32 2940.29,4126.63 
  "/>
<polyline clip-path="url(#clip0300)" style="stroke:#000000; stroke-width:12; stroke-opacity:1; fill:none" points="
  3893.22,4187.32 3893.22,4126.63 
  "/>
<polyline clip-path="url(#clip0300)" style="stroke:#000000; stroke-width:12; stroke-opacity:1; fill:none" points="
  4846.14,4187.32 4846.14,4126.63 
  "/>
<polyline clip-path="url(#clip0300)" style="stroke:#000000; stroke-width:12; stroke-opacity:1; fill:none" points="
  1034.45,4187.32 1096.39,4187.32 
  "/>
<polyline clip-path="url(#clip0300)" style="stroke:#000000; stroke-width:12; stroke-opacity:1; fill:none" points="
  1034.45,3378.2 1096.39,3378.2 
  "/>
<polyline clip-path="url(#clip0300)" style="stroke:#000000; stroke-width:12; stroke-opacity:1; fill:none" points="
  1034.45,2569.08 1096.39,2569.08 
  "/>
<polyline clip-path="url(#clip0300)" style="stroke:#000000; stroke-width:12; stroke-opacity:1; fill:none" points="
  1034.45,1759.97 1096.39,1759.97 
  "/>
<polyline clip-path="url(#clip0300)" style="stroke:#000000; stroke-width:12; stroke-opacity:1; fill:none" points="
  1034.45,950.849 1096.39,950.849 
  "/>
<polyline clip-path="url(#clip0300)" style="stroke:#000000; stroke-width:12; stroke-opacity:1; fill:none" points="
  1034.45,141.732 1096.39,141.732 
  "/>
<g clip-path="url(#clip0300)">
<text style="fill:#000000; fill-opacity:1; font-family:Arial,Helvetica Neue,Helvetica,sans-serif; font-size:248px; text-anchor:middle;" transform="rotate(0, 1034.45, 4431.52)" x="1034.45" y="4431.52">0</text>
</g>
<g clip-path="url(#clip0300)">
<text style="fill:#000000; fill-opacity:1; font-family:Arial,Helvetica Neue,Helvetica,sans-serif; font-size:248px; text-anchor:middle;" transform="rotate(0, 1987.37, 4431.52)" x="1987.37" y="4431.52">30</text>
</g>
<g clip-path="url(#clip0300)">
<text style="fill:#000000; fill-opacity:1; font-family:Arial,Helvetica Neue,Helvetica,sans-serif; font-size:248px; text-anchor:middle;" transform="rotate(0, 2940.29, 4431.52)" x="2940.29" y="4431.52">60</text>
</g>
<g clip-path="url(#clip0300)">
<text style="fill:#000000; fill-opacity:1; font-family:Arial,Helvetica Neue,Helvetica,sans-serif; font-size:248px; text-anchor:middle;" transform="rotate(0, 3893.22, 4431.52)" x="3893.22" y="4431.52">90</text>
</g>
<g clip-path="url(#clip0300)">
<text style="fill:#000000; fill-opacity:1; font-family:Arial,Helvetica Neue,Helvetica,sans-serif; font-size:248px; text-anchor:middle;" transform="rotate(0, 4846.14, 4431.52)" x="4846.14" y="4431.52">120</text>
</g>
<g clip-path="url(#clip0300)">
<text style="fill:#000000; fill-opacity:1; font-family:Arial,Helvetica Neue,Helvetica,sans-serif; font-size:248px; text-anchor:end;" transform="rotate(0, 980.45, 4277.82)" x="980.45" y="4277.82">0</text>
</g>
<g clip-path="url(#clip0300)">
<text style="fill:#000000; fill-opacity:1; font-family:Arial,Helvetica Neue,Helvetica,sans-serif; font-size:248px; text-anchor:end;" transform="rotate(0, 980.45, 3468.7)" x="980.45" y="3468.7">200</text>
</g>
<g clip-path="url(#clip0300)">
<text style="fill:#000000; fill-opacity:1; font-family:Arial,Helvetica Neue,Helvetica,sans-serif; font-size:248px; text-anchor:end;" transform="rotate(0, 980.45, 2659.58)" x="980.45" y="2659.58">400</text>
</g>
<g clip-path="url(#clip0300)">
<text style="fill:#000000; fill-opacity:1; font-family:Arial,Helvetica Neue,Helvetica,sans-serif; font-size:248px; text-anchor:end;" transform="rotate(0, 980.45, 1850.47)" x="980.45" y="1850.47">600</text>
</g>
<g clip-path="url(#clip0300)">
<text style="fill:#000000; fill-opacity:1; font-family:Arial,Helvetica Neue,Helvetica,sans-serif; font-size:248px; text-anchor:end;" transform="rotate(0, 980.45, 1041.35)" x="980.45" y="1041.35">800</text>
</g>
<g clip-path="url(#clip0300)">
<text style="fill:#000000; fill-opacity:1; font-family:Arial,Helvetica Neue,Helvetica,sans-serif; font-size:248px; text-anchor:end;" transform="rotate(0, 980.45, 232.232)" x="980.45" y="232.232">1000</text>
</g>
<g clip-path="url(#clip0300)">
<text style="fill:#000000; fill-opacity:1; font-family:Arial,Helvetica Neue,Helvetica,sans-serif; font-size:248px; text-anchor:middle;" transform="rotate(0, 3099.11, 4763.8)" x="3099.11" y="4763.8">Samples (thousands)</text>
</g>
<g clip-path="url(#clip0300)">
<text style="fill:#000000; fill-opacity:1; font-family:Arial,Helvetica Neue,Helvetica,sans-serif; font-size:248px; text-anchor:middle;" transform="rotate(-90, 217.2, 2164.52)" x="217.2" y="2164.52">CPU Time (seconds)</text>
</g>
<polyline clip-path="url(#clip0302)" style="stroke:#009af9; stroke-width:36; stroke-opacity:1; fill:none" points="
  1352.09,3910.95 1669.73,3569.19 1987.37,3263.61 2305.01,2956.77 2622.65,2650.19 2940.29,2343.84 3257.94,2036.36 3575.58,1730.27 3893.22,1423.4 4210.86,1117.37 
  4528.5,807.863 4846.14,505.276 
  "/>
<polyline clip-path="url(#clip0302)" style="stroke:#e26f46; stroke-width:36; stroke-opacity:1; fill:none" stroke-dasharray="144, 90" points="
  1352.09,3928.35 1669.73,3706.79 1987.37,3483.93 2305.01,2957.29 2622.65,2650.43 2940.29,2342.88 3257.94,2467.61 3575.58,2002.87 3893.22,1422.4 4210.86,1116.12 
  4528.5,1183.41 4846.14,503.15 
  "/>
<polyline clip-path="url(#clip0302)" style="stroke:#3da44d; stroke-width:36; stroke-opacity:1; fill:none" stroke-dasharray="18, 36" points="
  1352.09,3972.66 1669.73,3774.74 1987.37,3558.27 2305.01,3342.43 2622.65,3131.69 2940.29,2921.17 3257.94,2708.98 3575.58,2494.47 3893.22,2286.72 4210.86,2077.87 
  4528.5,1935.85 4846.14,1655.2 
  "/>
<polyline clip-path="url(#clip0302)" style="stroke:#c271d2; stroke-width:36; stroke-opacity:1; fill:none" stroke-dasharray="144, 72, 18, 72" points="
  1352.09,3966.27 1669.73,3743.62 1987.37,3530.56 2305.01,3308.54 2622.65,3089.25 2940.29,2876.1 3257.94,2683.95 3575.58,2474.33 3893.22,2221.79 4210.86,1992.49 
  4528.5,1803.9 4846.14,1567.44 
  "/>
<polygon clip-path="url(#clip0300)" points="
1196.45,1735.81 3014.36,1735.81 3014.36,148.212 1196.45,148.212 
  " fill="#ffffff" fill-rule="evenodd" fill-opacity="1"/>
<polyline clip-path="url(#clip0300)" style="stroke:#000000; stroke-width:12; stroke-opacity:1; fill:none" points="
  1196.45,1735.81 3014.36,1735.81 3014.36,148.212 1196.45,148.212 1196.45,1735.81 
  "/>
<polyline clip-path="url(#clip0300)" style="stroke:#009af9; stroke-width:36; stroke-opacity:1; fill:none" points="
  1250.45,465.732 1574.45,465.732 
  "/>
<g clip-path="url(#clip0300)">
<text style="fill:#000000; fill-opacity:1; font-family:Arial,Helvetica Neue,Helvetica,sans-serif; font-size:248px; text-anchor:start;" transform="rotate(0, 1628.45, 556.232)" x="1628.45" y="556.232">Normal (d)</text>
</g>
<polyline clip-path="url(#clip0300)" style="stroke:#e26f46; stroke-width:36; stroke-opacity:1; fill:none" stroke-dasharray="144, 90" points="
  1250.45,783.252 1574.45,783.252 
  "/>
<g clip-path="url(#clip0300)">
<text style="fill:#000000; fill-opacity:1; font-family:Arial,Helvetica Neue,Helvetica,sans-serif; font-size:248px; text-anchor:start;" transform="rotate(0, 1628.45, 873.752)" x="1628.45" y="873.752">Logistic (d)</text>
</g>
<polyline clip-path="url(#clip0300)" style="stroke:#3da44d; stroke-width:36; stroke-opacity:1; fill:none" stroke-dasharray="18, 36" points="
  1250.45,1100.77 1574.45,1100.77 
  "/>
<g clip-path="url(#clip0300)">
<text style="fill:#000000; fill-opacity:1; font-family:Arial,Helvetica Neue,Helvetica,sans-serif; font-size:248px; text-anchor:start;" transform="rotate(0, 1628.45, 1191.27)" x="1628.45" y="1191.27">Poisson (d)</text>
</g>
<polyline clip-path="url(#clip0300)" style="stroke:#c271d2; stroke-width:36; stroke-opacity:1; fill:none" stroke-dasharray="144, 72, 18, 72" points="
  1250.45,1418.29 1574.45,1418.29 
  "/>
<g clip-path="url(#clip0300)">
<text style="fill:#000000; fill-opacity:1; font-family:Arial,Helvetica Neue,Helvetica,sans-serif; font-size:248px; text-anchor:start;" transform="rotate(0, 1628.45, 1508.79)" x="1628.45" y="1508.79">Neg Bin (d)</text>
</g>
</svg>
